<?xml version="1.0" encoding="utf-8"?><!-- Uploaded to: SVG Repo, www.svgrepo.com, Generator: SVG Repo Mixer Tools -->
<svg width="800px" height="800px" viewBox="0 0 24 24" fill="none" xmlns="http://www.w3.org/2000/svg">
<path d="M13 3H8.2C7.0799 3 6.51984 3 6.09202 3.21799C5.71569 3.40973 5.40973 3.71569 5.21799 4.09202C5 4.51984 5 5.0799 5 6.2V17.8C5 18.9201 5 19.4802 5.21799 19.908C5.40973 20.2843 5.71569 20.5903 6.09202 20.782C6.51984 21 7.0799 21 8.2 21H15.8C16.9201 21 17.4802 21 17.908 20.782C18.2843 20.5903 18.5903 20.2843 18.782 19.908C19 19.4802 19 18.9201 19 17.8V9M13 3L19 9M13 3V7.4C13 7.96005 13 8.24008 13.109 8.45399C13.2049 8.64215 13.3578 8.79513 13.546 8.89101C13.7599 9 14.0399 9 14.6 9H19M11.9976 12.2119C11.2978 11.4328 10.1309 11.2232 9.25414 11.9367C8.37738 12.6501 8.25394 13.843 8.94247 14.6868C9.33119 15.1632 10.2548 15.9983 10.9854 16.6353C11.3319 16.9374 11.5051 17.0885 11.7147 17.1503C11.8934 17.203 12.1018 17.203 12.2805 17.1503C12.4901 17.0885 12.6633 16.9374 13.0098 16.6353C13.7404 15.9983 14.664 15.1632 15.0527 14.6868C15.7413 13.843 15.6329 12.6426 14.7411 11.9367C13.8492 11.2307 12.6974 11.4328 11.9976 12.2119Z" stroke="#000000" stroke-width="2" stroke-linecap="round" stroke-linejoin="round"/>
</svg>